<?xml version="1.0" ?><svg id="Icons" viewBox="0 0 24 24" xmlns="http://www.w3.org/2000/svg" xmlns:xlink="http://www.w3.org/1999/xlink"><defs><style>.cls-1{fill:url(#linear-gradient);}.cls-2{fill:#ef6d0c;}.cls-3{fill:#ffbc6c;}</style><linearGradient gradientUnits="userSpaceOnUse" id="linear-gradient" x1="12" x2="12" y1="1.085" y2="22.949"><stop offset="0" stop-color="#ffaa39"/><stop offset="1" stop-color="#ff811a"/></linearGradient></defs><path class="cls-1" d="M23,7V19a4,4,0,0,1-4,4H5a4,4,0,0,1-4-4V3A2.006,2.006,0,0,1,3,1H9a2.006,2.006,0,0,1,2,2V5H21A2.006,2.006,0,0,1,23,7Z"/><path class="cls-2" d="M11,3V5H5A1,1,0,0,1,5,3Z"/><path class="cls-3" d="M14,20H5a1,1,0,0,1,0-2h9a1,1,0,0,1,0,2Z"/><path class="cls-3" d="M9,16H5a1,1,0,0,1,0-2H9a1,1,0,0,1,0,2Z"/></svg>